<svg xmlns="http://www.w3.org/2000/svg" viewBox="0 0 419.71 66.23"><defs><style>.cls-1{fill:#2d3840;}.cls-2{fill:#ffd400;}</style></defs><g id="Layer_2" data-name="Layer 2"><g id="Layer_1-2" data-name="Layer 1"><path class="cls-1" d="M37.27,38.25q0,7.3-5,10.71t-14,3.39H0V3.69H17.19q9.36,0,13.4,2.73t4,8.63a11.54,11.54,0,0,1-2.2,7.34c-1.46,1.88-3.75,3.13-6.87,3.77Q31.68,27,34.47,30A11.68,11.68,0,0,1,37.27,38.25Zm-12.66-21a4,4,0,0,0-2-3.85,14.12,14.12,0,0,0-6.33-1.08H9.91V22.75H16q4.39,0,6.52-1.23A4.54,4.54,0,0,0,24.61,17.23Zm2.53,20.14q0-3.27-2.21-4.62c-1.48-.9-4.25-1.36-8.3-1.36H9.91V43.56h5a38.1,38.1,0,0,0,8-.56,5.6,5.6,0,0,0,3.2-1.9A6.08,6.08,0,0,0,27.14,37.37Z"/><path class="cls-1" d="M49.45,5.41c0,1.71-.42,2.91-1.26,3.59a6.09,6.09,0,0,1-3.87,1c-1.92,0-3.23-.4-3.92-1.2a5,5,0,0,1-1-3.41,4.72,4.72,0,0,1,1.13-3.53A5.51,5.51,0,0,1,44.32.81a5.94,5.94,0,0,1,3.94,1A4.51,4.51,0,0,1,49.45,5.41ZM39.86,52.35V15.47h9.07V52.35Z"/><path class="cls-1" d="M65.16,53.93q0,6.62-3,9.46t-9.67,2.84a31.37,31.37,0,0,1-4-.33,27.65,27.65,0,0,1-3.8-.72l2-7.87a14.44,14.44,0,0,0,5.31,1q2.74,0,3.39-1.68a16.9,16.9,0,0,0,.65-5.59V15.47h9.08Zm.49-48.52c0,1.71-.42,2.91-1.27,3.59a6,6,0,0,1-3.83,1c-1.92,0-3.23-.4-3.94-1.2a5,5,0,0,1-1-3.41,4.72,4.72,0,0,1,1.12-3.53A5.58,5.58,0,0,1,60.55.81a5.86,5.86,0,0,1,3.92,1A4.58,4.58,0,0,1,65.65,5.41Z"/><path class="cls-1" d="M88.05,52.35H79.68L66.6,15.47h9.28l8.2,24.29,8.15-24.29h9.07Z"/><path class="cls-1" d="M134.51,34q0,9.21-4.25,14.32t-13.39,5.12Q99.14,53.44,99.15,34q0-9.36,4.25-14.47t13.47-5.12q9.13,0,13.39,5.12T134.51,34Zm-9.38,0c0-4.06-.64-7-1.9-8.88s-3.39-2.8-6.36-2.8-5.09,1-6.4,2.87-2,4.85-2,8.81.65,6.83,2,8.7,3.44,2.79,6.42,2.79,5-.92,6.32-2.76S125.13,38,125.13,34Z"/><path class="cls-1" d="M171.75,34q0,9.21-4.25,14.32t-13.4,5.12q-17.72,0-17.72-19.44,0-9.36,4.26-14.47t13.46-5.12q9.15,0,13.4,5.12T171.75,34Zm-9.39,0q0-6.09-1.9-8.88c-1.26-1.86-3.38-2.8-6.36-2.8s-5.08,1-6.4,2.87-2,4.85-2,8.81.65,6.83,2,8.7,3.43,2.79,6.41,2.79,5-.92,6.33-2.76S162.36,38,162.36,34Z"/><path class="cls-1" d="M196.74,24.33a8.37,8.37,0,0,0-3.73-.71,10,10,0,0,0-4.8,1.22,21.28,21.28,0,0,0-4.66,3.53v24h-9.07V15.47h9.07v5.27a23.64,23.64,0,0,1,5-4.18,11.19,11.19,0,0,1,6-1.65,8.07,8.07,0,0,1,4,.73Z"/><path class="cls-1" d="M234.83,33.64q0,9.18-3.85,14.49c-2.56,3.54-6.23,5.31-11,5.31a17.09,17.09,0,0,1-6.14-1.29,14.85,14.85,0,0,1-5.29-3.25l-1.23,3.45h-6.93V0h9.07V18.42a17.24,17.24,0,0,1,11-4q7.42,0,10.87,5.12T234.83,33.64Zm-9.35.15q0-5.7-1.79-8.55a6.31,6.31,0,0,0-5.77-2.85,10.71,10.71,0,0,0-4.48,1,15.66,15.66,0,0,0-4,2.55V42.12a16.18,16.18,0,0,0,3.68,2.3,9.91,9.91,0,0,0,4.2,1,6.94,6.94,0,0,0,6-3Q225.49,39.48,225.48,33.79Z"/><path class="cls-1" d="M246.09,36.28q.24,4.92,2.39,7.07t6.75,2.14a14.82,14.82,0,0,0,4.69-.67,7.45,7.45,0,0,0,3.53-2.56l6.75,4.81a13.64,13.64,0,0,1-5.74,4.79,24.21,24.21,0,0,1-9.65,1.58q-9.1,0-13.59-4.78t-4.48-14.45q0-19.8,17.71-19.8,7.88,0,12,4.45c2.75,3,4.13,7.28,4.13,13v4.46ZM261.59,30q0-8.4-7.35-8.4a8.41,8.41,0,0,0-4,.83,6.18,6.18,0,0,0-2.48,2.46A15.49,15.49,0,0,0,246.33,30Z"/><path class="cls-1" d="M281.67,36.28q.24,4.92,2.39,7.07t6.75,2.14a14.78,14.78,0,0,0,4.69-.67A7.52,7.52,0,0,0,299,42.26l6.75,4.81A13.72,13.72,0,0,1,300,51.86a24.17,24.17,0,0,1-9.65,1.58q-9.11,0-13.59-4.78t-4.48-14.45q0-19.8,17.72-19.8,7.88,0,12,4.45c2.76,3,4.13,7.28,4.13,13v4.46ZM297.17,30q0-8.4-7.34-8.4a8.43,8.43,0,0,0-4,.83,6.15,6.15,0,0,0-2.47,2.46A15.25,15.25,0,0,0,281.92,30Z"/><path class="cls-1" d="M308.77,52.35V0h9.07V52.35Z"/><path class="cls-2" d="M365.4,45.14,382.66,22V15.47H355V22a8.11,8.11,0,0,1,.88-.06,5.53,5.53,0,0,1,2.35.48,6,6,0,0,1,9.67.25h.1a2.6,2.6,0,0,1,3.67,0h.1l0,.05c1.27,1.47.63,4.42-1.89,4.42a2.71,2.71,0,0,1-.94-.18,5.8,5.8,0,0,1-4.29,5.3L354.57,45.74v6.61h28.65V45.14Z"/><path class="cls-1" d="M342.55,22.61a8,8,0,0,1,7.12,3.81,3.31,3.31,0,0,1,.33,0,4.89,4.89,0,0,1,.68.07A5.05,5.05,0,0,1,355,22V0H346V18.21a14.22,14.22,0,0,0-4.53-2.72,14.55,14.55,0,0,0-5.35-1.08q-7.35,0-11.41,5.21T320.6,34.21q0,9.16,3.69,14.2t10.66,5a15.36,15.36,0,0,0,6.4-1.27,22.62,22.62,0,0,0,5.34-3.41v3.59H355V46.56c-3,0-6-.14-9-.28-1.69-.08-3.38-.12-5.06-.11h-1.47a2.1,2.1,0,0,1-1.35.47c-1-.07-2-.19-3-.22l0,0a1.65,1.65,0,0,1-.88,0,1.59,1.59,0,0,1-.82-.26,2.18,2.18,0,0,1-1.14-1.74,6,6,0,0,1-2.1-7.24,26.15,26.15,0,0,1-.19-3.18c0-3.59.73-6.43,2.21-8.53A6.85,6.85,0,0,1,338,22.39a9.74,9.74,0,0,1,2.67.39A9.83,9.83,0,0,1,342.55,22.61Z"/><path class="cls-2" d="M419.71,34q0,9.21-4.25,14.33t-13.39,5.11q-17.73,0-17.72-19.44,0-9.36,4.25-14.47t13.47-5.11q9.14,0,13.39,5.11T419.71,34Zm-9.38,0q0-6.09-1.9-8.88t-6.36-2.79q-4.44,0-6.4,2.86t-2,8.81q0,5.91,1.95,8.7c1.3,1.86,3.44,2.8,6.42,2.8s5-.92,6.32-2.77S410.33,38,410.33,34Z"/><path class="cls-1" d="M328.64,21.17V46.35h6.56c0-.23-.05-.46-.07-.69a2,2,0,0,1-1.2-.52c-5.75-1.18-5.61-10.34.38-11.18-1.29-5.08,1.46-11.35,8.24-11.35a8,8,0,0,1,7.12,3.81,3.31,3.31,0,0,1,.33,0,4.74,4.74,0,0,1,.67.07,5,5,0,0,1,.34-1.33V21.17Z"/><polygon class="cls-2" points="364.63 32.27 371.79 22.68 377.32 22.74 366.86 34.71 364.63 32.27"/><polygon class="cls-1" points="355.02 45.13 332.69 45.13 333.08 48.44 355.02 48.44 355.02 45.13"/></g></g></svg>